REM DIRINDEX 1\2,1\3,1\4,1\5
REM DIRNAME "folder01","folder02","folder03","folder04","folder05"
TITLE ""
FILE "P1Q_t_1401-1409.mp3" MP3
  TRACK 01 AUDIO
    TITLE "0:"
    INDEX 01 00:00:00
  TRACK 02 AUDIO
    TITLE "2:cjc173_5175"
    INDEX 01 00:00:08
  TRACK 03 AUDIO
    TITLE "0:"
    INDEX 01 00:02:11
  TRACK 04 AUDIO
    TITLE "2:cjc173_5176"
    INDEX 01 00:02:58
  TRACK 05 AUDIO
    TITLE "0:"
    INDEX 01 00:03:67
  TRACK 06 AUDIO
    TITLE "3:cjc173_5177"
    INDEX 01 00:04:37
  TRACK 07 AUDIO
    TITLE "0:"
    INDEX 01 00:05:47
  TRACK 08 AUDIO
    TITLE "4:cjc173_5178"
    INDEX 01 00:05:68
  TRACK 09 AUDIO
    TITLE "0:"
    INDEX 01 00:11:36
  TRACK 10 AUDIO
    TITLE "5:cjc173_5179"
    INDEX 01 00:11:55
  TRACK 11 AUDIO
    TITLE "0:"
    INDEX 01 00:16:39
  TRACK 12 AUDIO
    TITLE "3:cjc173_5180"
    INDEX 01 00:17:11
  TRACK 13 AUDIO
    TITLE "0:"
    INDEX 01 00:18:28
  TRACK 14 AUDIO
    TITLE "4:cjc173_5181"
    INDEX 01 00:18:47
  TRACK 15 AUDIO
    TITLE "0:"
    INDEX 01 00:22:33
  TRACK 16 AUDIO
    TITLE "5:cjc173_5182"
    INDEX 01 00:22:53
  TRACK 17 AUDIO
    TITLE "0:"
    INDEX 01 00:27:66
  TRACK 18 AUDIO
    TITLE "3:cjc173_5183"
    INDEX 01 00:28:36
  TRACK 19 AUDIO
    TITLE "0:"
    INDEX 01 00:29:35
  TRACK 20 AUDIO
    TITLE "4:cjc173_5184"
    INDEX 01 00:29:55
  TRACK 21 AUDIO
    TITLE "0:"
    INDEX 01 00:34:19
  TRACK 22 AUDIO
    TITLE "5:cjc173_5185"
    INDEX 01 00:34:39
  TRACK 23 AUDIO
    TITLE "0:"
    INDEX 01 00:38:44
  TRACK 24 AUDIO
    TITLE "3:cjc173_5186"
    INDEX 01 00:39:12
  TRACK 25 AUDIO
    TITLE "0:"
    INDEX 01 00:40:24
  TRACK 26 AUDIO
    TITLE "4:cjc173_5187"
    INDEX 01 00:40:45
  TRACK 27 AUDIO
    TITLE "0:"
    INDEX 01 00:42:20
  TRACK 28 AUDIO
    TITLE "5:cjc173_5188"
    INDEX 01 00:42:40
  TRACK 29 AUDIO
    TITLE "0:"
    INDEX 01 00:48:09
  TRACK 30 AUDIO
    TITLE "3:cjc173_5189"
    INDEX 01 00:48:54
  TRACK 31 AUDIO
    TITLE "0:"
    INDEX 01 00:50:06
  TRACK 32 AUDIO
    TITLE "4:cjc173_5190"
    INDEX 01 00:50:26
  TRACK 33 AUDIO
    TITLE "0:"
    INDEX 01 00:51:66
  TRACK 34 AUDIO
    TITLE "5:cjc173_5191"
    INDEX 01 00:52:11
  TRACK 35 AUDIO
    TITLE "0:"
    INDEX 01 00:57:08
  TRACK 36 AUDIO
    TITLE "3:cjc173_5192"
    INDEX 01 00:57:55
  TRACK 37 AUDIO
    TITLE "0:"
    INDEX 01 00:59:05
  TRACK 38 AUDIO
    TITLE "4:cjc173_5193"
    INDEX 01 00:59:27
  TRACK 39 AUDIO
    TITLE "0:"
    INDEX 01 01:03:19
  TRACK 40 AUDIO
    TITLE "5:cjc173_5194"
    INDEX 01 01:03:36
  TRACK 41 AUDIO
    TITLE "0:"
    INDEX 01 01:09:19
  TRACK 42 AUDIO
    TITLE "3:cjc173_5195"
    INDEX 01 01:09:66
  TRACK 43 AUDIO
    TITLE "0:"
    INDEX 01 01:11:03
  TRACK 44 AUDIO
    TITLE "4:cjc173_5196"
    INDEX 01 01:11:24
  TRACK 45 AUDIO
    TITLE "0:"
    INDEX 01 01:14:36
  TRACK 46 AUDIO
    TITLE "5:cjc173_5197"
    INDEX 01 01:14:56
  TRACK 47 AUDIO
    TITLE "0:"
    INDEX 01 01:20:23
  TRACK 48 AUDIO
    TITLE "3:cjc173_5198"
    INDEX 01 01:20:68
  TRACK 49 AUDIO
    TITLE "0:"
    INDEX 01 01:21:70
  TRACK 50 AUDIO
    TITLE "4:cjc173_5199"
    INDEX 01 01:22:12
  TRACK 51 AUDIO
    TITLE "0:"
    INDEX 01 01:25:75
  TRACK 52 AUDIO
    TITLE "5:cjc173_5200"
    INDEX 01 01:26:20
  TRACK 53 AUDIO
    TITLE "0:"
    INDEX 01 01:31:35
  TRACK 54 AUDIO
    TITLE "3:cjc173_5201"
    INDEX 01 01:32:07
  TRACK 55 AUDIO
    TITLE "0:"
    INDEX 01 01:33:14
  TRACK 56 AUDIO
    TITLE "4:cjc173_5202"
    INDEX 01 01:33:35
  TRACK 57 AUDIO
    TITLE "0:"
    INDEX 01 01:38:37
  TRACK 58 AUDIO
    TITLE "5:cjc173_5203"
    INDEX 01 01:38:54
  TRACK 59 AUDIO
    TITLE "0:"
    INDEX 01 01:42:56
